# xmcd
#
# Track frame offsets: 
#        150
#        13000
#        26430
#        39148
#        50500
#        63655
#        76008
#        86755
#        100285
#        111950
#        123625
#        134320
#        146538
#        159275
#        171045
#        182528
#        193845
#        207720
#        219768
#        231585
#        242930
#        255610
#        267850
#        282325
#        296078
#
# Disc length: 4090 seconds
#
# Revision: 5
# Processed by: cddbd v1.5.2PL0 Copyright (c) Steve Scherf et al.
# Submitted via: ExactAudioCopy v0.95b2
#
DISCID=700ff819
DTITLE=Roy Milton - Roy Milton and His Solid Senders
DYEAR=1990
DGENRE=R&B
TTITLE0=Milton's Boogie
TTITLE1=R. M. Blues
TTITLE2=True Blues
TTITLE3=Camille's Boogie
TTITLE4=Thrill Me
TTITLE5=Big Fat Mama
TTITLE6=Keep A Dollar In Your Pocket
TTITLE7=Everything I Do Is Wrong
TTITLE8=Hop, Skip and Jump
TTITLE9=Porter's Love Song
TTITLE10=The Hucklebuck
TTITLE11=Information Blues
TTITLE12=Where There Is No Love
TTITLE13=Junior Jives
TTITLE14=Bartender's Boogie
TTITLE15=Oh Babe
TTITLE16=Christmas Time Blues
TTITLE17=It's Later Than You Think
TTITLE18=The Numbers Blues
TTITLE19=I Have News For You
TTITLE20=T-Town Twist
TTITLE21=Best Wishes
TTITLE22=So Tired
TTITLE23=Night And Day (I Miss You So)
TTITLE24=Blue Turning Grey
EXTD=
EXTT0=
EXTT1=
EXTT2=
EXTT3=
EXTT4=
EXTT5=
EXTT6=
EXTT7=
EXTT8=
EXTT9=
EXTT10=
EXTT11=
EXTT12=
EXTT13=
EXTT14=
EXTT15=
EXTT16=
EXTT17=
EXTT18=
EXTT19=
EXTT20=
EXTT21=
EXTT22=
EXTT23=
EXTT24=
PLAYORDER=
